<svg version="1.1" id="Layer_1" xmlns="http://www.w3.org/2000/svg" xmlns:xlink="http://www.w3.org/1999/xlink" x="0px" y="0px"
	 width="100%" viewBox="0 0 1024 1024" enable-background="new 0 0 1024 1024" xml:space="preserve">
<path fill="#1C398E" opacity="1.000000" stroke="none" 
	d="
M435.054382,812.177185 
	C354.170410,789.644775 292.845245,741.799377 249.076859,671.175415 
	C226.638077,634.968689 212.685547,595.507324 206.500488,553.267273 
	C202.963181,529.109619 201.923325,504.880249 203.809998,480.616089 
	C207.515976,432.954437 221.088440,388.204071 245.752533,347.132965 
	C290.348694,272.870575 355.471039,226.026443 438.842651,204.092453 
	C469.009125,196.156021 499.928314,193.856918 530.910583,195.885651 
	C618.702332,201.634277 692.184814,237.214142 749.908997,303.937225 
	C786.233826,345.924927 808.736450,394.654663 818.441528,449.354095 
	C822.557556,472.552429 824.287170,495.917419 823.184814,519.380615 
	C819.958496,588.053955 797.808167,649.933899 754.924988,703.924072 
	C715.124573,754.032959 665.085022,789.692810 603.715027,808.749695 
	C581.279541,815.716492 558.291077,819.809814 534.792786,821.539062 
	C501.100769,824.018494 468.071198,820.644226 435.054382,812.177185 
M400.657471,254.267365 
	C341.009399,281.864990 296.464142,325.225555 266.696594,383.639526 
	C250.661652,415.105499 241.674728,448.638000 239.135895,483.974152 
	C237.240158,510.359192 238.667725,536.455200 243.551895,562.400208 
	C244.860062,569.349365 245.323822,569.628113 252.343201,569.628113 
	C426.155396,569.628662 599.967590,569.599365 773.779663,569.750061 
	C779.179138,569.754700 781.782959,568.133057 782.586792,562.916992 
	C784.128113,552.914551 786.047607,542.984009 786.839844,532.858093 
	C788.912292,506.368988 788.659302,479.941620 783.407043,453.854675 
	C770.081055,387.666901 737.350464,332.865021 684.583252,290.709961 
	C624.196228,242.467438 554.908142,224.068130 478.427826,232.590012 
	C451.698883,235.568314 425.909607,242.751556 400.657471,254.267365 
M480.532410,684.134094 
	C497.781494,680.115417 506.015900,668.852234 505.645935,649.783264 
	C505.366943,635.404297 494.768585,623.153137 479.512360,620.650696 
	C464.656189,618.213806 449.598785,619.620361 434.627136,619.508057 
	C431.572937,619.485107 430.247375,621.275085 430.251984,624.344910 
	C430.297150,654.499329 430.308563,684.653809 430.273346,714.808228 
	C430.270142,717.559875 431.319885,718.743591 434.112488,718.672119 
	C438.441162,718.561340 442.781555,718.501099 447.104401,718.696899 
	C450.654816,718.857666 451.755585,717.313477 451.693909,713.942627 
	C451.547668,705.948486 451.799652,697.946045 451.591339,689.954712 
	C451.490631,686.091675 452.771240,684.647278 456.741089,684.718506 
	C464.393097,684.855835 472.053345,684.533691 480.532410,684.134094 
M685.405151,643.161194 
	C683.455200,638.335449 680.899902,633.915771 677.254700,630.121094 
	C666.850403,619.289978 653.721375,617.264893 639.602661,618.218018 
	C626.686951,619.089966 616.273499,624.697754 608.718567,635.109558 
	C598.288330,649.484070 596.191467,665.705627 599.957397,682.638367 
	C606.398804,711.600708 631.165955,725.359924 660.082703,718.024536 
	C672.979736,714.752991 681.996582,706.436279 686.052734,693.388672 
	C686.689209,691.341309 687.713318,688.657837 684.255554,688.461487 
	C678.780090,688.150513 673.272888,688.367249 667.779724,688.420227 
	C666.233215,688.435120 665.449768,689.619507 664.879700,690.848511 
	C658.377808,704.865967 633.596985,704.767761 625.354858,688.554932 
	C618.545227,675.160217 618.257935,661.199890 625.482727,647.852295 
	C632.769531,634.390015 654.390015,632.266113 662.791809,644.375916 
	C666.158203,649.228088 669.609314,650.410034 674.710693,649.962219 
	C676.859314,649.773621 679.037964,649.941284 681.202698,649.919861 
	C687.007385,649.862366 687.265320,649.506042 685.405151,643.161194 
M595.787292,620.132263 
	C591.055847,618.684753 586.192444,619.822205 581.415100,619.389954 
	C577.702637,619.054016 575.637329,620.755615 574.050049,623.994202 
	C568.558655,635.198303 562.871887,646.306885 557.224060,657.433716 
	C556.665649,658.533936 556.602539,660.137573 554.879639,660.297546 
	C554.565063,660.115295 554.152588,660.024170 554.034058,659.786377 
	C549.728760,651.150208 545.489502,642.480896 541.160339,633.856812 
	C533.654419,618.904297 533.632080,618.915405 516.913940,619.408508 
	C516.747498,619.413452 516.580627,619.407349 516.414429,619.415344 
	C511.468933,619.653076 510.776825,620.776733 513.165283,625.170532 
	C519.923279,637.602417 526.174866,650.360229 533.713501,662.303101 
	C541.736938,675.013916 545.367615,688.147278 544.426758,703.267639 
	C543.435181,719.203491 544.199768,719.148438 560.176331,718.730835 
	C563.919861,718.632996 565.161926,717.207581 565.091003,713.660645 
	C564.967834,707.501953 565.182312,701.337158 565.106567,695.176758 
	C564.988342,685.565735 566.611816,676.731506 571.955322,668.211792 
	C580.435547,654.690979 587.759644,640.443970 595.527893,626.479248 
	C596.538025,624.663391 598.179016,622.825317 595.787292,620.132263 
M408.646820,686.192017 
	C408.649841,666.192871 408.669556,646.193787 408.645355,626.194641 
	C408.638367,620.432861 407.805328,619.617859 401.976196,619.439453 
	C399.311981,619.357849 396.643341,619.393616 393.976990,619.413757 
	C387.788879,619.460388 387.367126,619.844238 387.357697,625.908325 
	C387.327698,645.240784 387.300201,664.573364 387.349396,683.905701 
	C387.357574,687.124329 386.950165,690.215576 385.721893,693.172424 
	C383.621918,698.227600 379.048645,701.006592 372.853912,700.765930 
	C367.452789,700.556091 362.271057,698.427917 361.238129,693.030945 
	C359.966431,686.386475 356.273743,685.809814 351.007904,686.303162 
	C348.695190,686.519775 346.342773,686.397644 344.012146,686.318542 
	C340.283295,686.192139 339.214142,687.540283 339.778107,691.481445 
	C342.795197,712.566040 360.910034,722.937439 381.964691,719.094421 
	C398.765045,716.027893 406.219788,706.449707 408.646820,686.192017 
z"/>
<path fill="#1C398E" opacity="1.000000" stroke="none" 
	d="
M372.000061,339.622498 
	C404.958649,339.707642 436.826019,343.688843 467.504822,354.753082 
	C483.554688,360.541443 498.057800,368.788605 508.232147,383.162994 
	C509.655548,385.174011 510.328156,387.186523 510.326660,389.631561 
	C510.291321,446.932739 510.301300,504.233948 510.277069,561.535156 
	C510.276459,562.969604 510.637726,564.538452 509.236664,566.014404 
	C506.763367,565.881714 504.844757,564.144348 502.771454,562.936157 
	C476.635010,547.705261 448.109192,539.900330 418.469025,535.260742 
	C394.528198,531.513306 370.457275,531.086182 346.322174,531.309204 
	C337.976074,531.386230 336.655670,530.013184 336.655609,521.878418 
	C336.655243,464.743713 336.658173,407.608978 336.664429,350.474274 
	C336.665344,342.240723 337.718292,341.550995 346.069611,340.522186 
	C354.552032,339.477203 363.021942,339.818878 372.000061,339.622498 
z"/>
<path fill="#1C398E" opacity="1.000000" stroke="none" 
	d="
M551.640381,548.737549 
	C539.342468,553.423279 528.108032,559.396179 517.444580,566.264771 
	C515.477356,564.078430 515.946411,562.004089 515.945862,560.070190 
	C515.931335,505.257935 516.141113,450.444244 515.746216,395.634857 
	C515.681641,386.676239 518.935303,380.418182 525.054016,374.703613 
	C539.402283,361.303101 557.164917,354.816254 575.550171,349.707092 
	C593.994568,344.581543 612.845947,341.863068 631.956055,340.529785 
	C648.596863,339.368805 665.183594,339.139038 681.798096,340.650085 
	C687.533325,341.171692 689.332458,342.936279 689.334351,348.867645 
	C689.353088,407.012451 689.353638,465.157257 689.330505,523.302063 
	C689.328003,529.463318 687.457947,531.301331 681.241455,531.335144 
	C663.927734,531.429260 646.590698,530.872009 629.320984,532.438904 
	C602.935364,534.832947 576.925293,539.158386 551.640381,548.737549 
z"/>
<path fill="#1C398E" opacity="1.000000" stroke="none" 
	d="
M482.191040,660.870544 
	C479.693695,665.205994 475.842163,666.867493 471.612091,667.165039 
	C466.150513,667.549194 460.643005,667.250977 455.156067,667.315002 
	C452.564148,667.345215 451.653534,666.031433 451.667480,663.607605 
	C451.710571,656.123840 451.726624,648.639526 451.665924,641.156067 
	C451.644836,638.554504 452.887604,637.637634 455.333038,637.670044 
	C460.487610,637.738342 465.665009,637.409424 470.794434,637.779236 
	C481.829681,638.574951 486.943054,648.808655 482.191040,660.870544 
z"/>
</svg>
