<?xml version="1.0" standalone="no"?>
<!DOCTYPE svg PUBLIC "-//W3C//DTD SVG 20010904//EN"
 "http://www.w3.org/TR/2001/REC-SVG-20010904/DTD/svg10.dtd">
<svg version="1.0" xmlns="http://www.w3.org/2000/svg"
 width="1024.000000pt" height="1024.000000pt" viewBox="0 0 1024.000000 1024.000000"
 preserveAspectRatio="xMidYMid meet">

<g transform="translate(0.000000,1024.000000) scale(0.100000,-0.100000)"
fill="#000000" stroke="none">
<path d="M2105 6705 c-448 -79 -822 -362 -1015 -768 -100 -208 -135 -391 -127
-656 7 -254 45 -418 146 -621 67 -136 132 -230 236 -338 275 -289 606 -432
1000 -432 529 0 984 281 1223 756 201 400 209 885 22 1289 -173 376 -519 652
-940 752 -133 31 -417 41 -545 18z m438 -130 c516 -90 910 -476 1018 -998 23
-112 30 -313 16 -449 l-9 -78 -1223 0 -1223 0 -6 28 c-4 15 -9 101 -12 192 -5
126 -2 188 10 262 44 269 164 505 351 694 178 179 415 303 664 348 103 19 309
19 414 1z m-673 -1935 c0 -204 -7 -233 -63 -274 -41 -30 -163 -30 -204 0 -35
26 -59 68 -68 117 l-7 37 56 0 c51 0 56 -2 56 -22 0 -32 29 -58 65 -58 53 0
55 8 55 200 0 97 2 179 4 181 2 2 27 4 55 4 l51 0 0 -185z m387 154 c60 -44
80 -137 44 -204 -28 -53 -82 -80 -163 -80 l-68 0 0 -80 0 -80 -55 0 -55 0 0
238 0 237 134 -5 c116 -4 139 -8 163 -26z m228 -32 c16 -31 37 -70 46 -86 l18
-29 42 86 43 85 58 4 c32 2 58 1 58 0 0 -2 -34 -66 -75 -142 l-75 -138 0 -96
0 -96 -55 0 -55 0 0 89 0 88 -80 147 c-44 81 -80 148 -80 149 0 1 28 1 63 -1
l63 -4 29 -56z m573 49 c42 -22 63 -43 86 -88 24 -48 21 -53 -34 -53 -42 0
-55 4 -73 25 -31 36 -83 42 -125 15 -45 -28 -65 -79 -60 -154 4 -51 9 -63 36
-87 48 -43 104 -41 148 6 28 30 39 35 78 35 30 0 46 -4 46 -12 0 -25 -46 -92
-81 -120 -44 -35 -133 -48 -193 -28 -50 16 -105 66 -127 115 -21 46 -25 157
-8 218 13 49 63 105 114 128 54 25 145 25 193 0z"/>
<path d="M1562 6080 l-22 -9 2 -418 3 -418 140 -7 c229 -10 430 -52 574 -118
35 -17 65 -30 67 -30 2 0 4 184 4 409 l0 409 -37 30 c-88 69 -232 123 -393
147 -105 16 -302 19 -338 5z"/>
<path d="M2785 6075 c-175 -28 -310 -79 -392 -150 l-43 -37 0 -398 c0 -245 4
-401 10 -405 5 -3 31 5 58 19 126 64 362 114 587 124 l140 7 3 415 c2 381 1
416 -15 428 -22 16 -240 15 -348 -3z"/>
<path d="M2070 4666 l0 -66 50 0 c56 0 90 24 90 63 0 42 -23 60 -84 65 l-56 4
0 -66z"/>
<path d="M7965 6501 c-115 -29 -181 -67 -270 -156 -131 -130 -187 -275 -187
-485 -1 -195 51 -343 160 -461 115 -125 231 -177 417 -186 281 -13 496 109
580 330 14 37 25 73 25 80 0 9 -33 12 -131 10 l-132 -2 -29 -50 c-33 -60 -108
-114 -181 -132 -26 -6 -80 -9 -120 -7 -120 8 -207 66 -261 173 -35 71 -45 125
-46 235 0 210 71 355 205 420 71 34 199 34 269 0 59 -28 109 -76 136 -130 l20
-40 134 0 134 0 -10 38 c-34 127 -134 255 -245 315 -121 65 -319 85 -468 48z"/>
<path d="M4828 6038 c-3 -456 -3 -464 -25 -508 -30 -61 -71 -85 -148 -85 -93
0 -137 37 -159 137 l-12 50 -122 1 -122 2 0 -32 c0 -97 55 -229 119 -285 19
-17 65 -45 101 -62 63 -30 70 -31 200 -31 119 0 142 3 195 24 68 27 150 103
184 169 48 95 51 126 51 619 l0 463 -130 0 -129 0 -3 -462z"/>
<path d="M5340 5870 l0 -630 128 0 128 0 1 218 0 217 204 6 c180 5 211 8 262
28 118 46 212 149 242 266 64 247 -88 473 -345 514 -36 6 -190 11 -342 11
l-278 0 0 -630z m595 395 c72 -31 115 -94 115 -170 0 -63 -20 -105 -69 -147
-57 -48 -113 -62 -260 -62 l-125 -1 2 200 c0 110 1 200 1 200 91 0 322 -14
336 -20z"/>
<path d="M6330 6496 c0 -2 106 -182 235 -399 l235 -396 0 -230 0 -231 130 0
130 0 0 230 0 230 40 64 c66 109 430 728 430 732 0 3 -66 3 -147 2 l-148 -3
-147 -270 c-81 -148 -151 -271 -155 -272 -5 -1 -19 19 -32 45 -12 26 -79 149
-148 275 l-126 227 -148 0 c-82 0 -149 -2 -149 -4z"/>
<path d="M8580 4450 l0 -600 110 0 110 0 0 600 0 600 -110 0 -110 0 0 -600z"/>
<path d="M4270 4425 l0 -575 120 0 120 0 0 210 0 210 158 0 c209 0 276 18 364
98 187 169 142 484 -84 590 -77 36 -140 42 -413 42 l-265 0 0 -575z m547 357
c69 -36 98 -101 83 -182 -10 -55 -36 -89 -91 -120 -39 -21 -59 -25 -171 -28
l-128 -4 0 182 0 182 133 -4 c113 -3 138 -7 174 -26z"/>
<path d="M7040 4815 l0 -104 -66 -3 -66 -3 -1 -83 -2 -82 68 0 67 0 0 -243 c0
-282 8 -327 69 -388 47 -48 91 -59 229 -59 l112 0 0 79 0 79 -70 4 c-80 4 -97
16 -110 74 -5 21 -10 132 -10 247 l0 207 95 0 95 0 0 85 0 85 -95 0 -95 0 0
105 0 105 -110 0 -110 0 0 -105z"/>
<path d="M5553 4715 c-161 -36 -268 -146 -308 -317 -25 -109 -18 -207 26 -323
31 -83 121 -173 203 -204 78 -29 159 -39 245 -30 194 21 326 157 353 364 25
184 -34 353 -153 441 -95 69 -243 98 -366 69z m170 -179 c41 -17 91 -73 108
-123 21 -57 18 -217 -4 -275 -56 -145 -252 -170 -324 -41 -45 79 -52 227 -16
328 35 101 142 151 236 111z"/>
<path d="M6647 4706 c-57 -21 -115 -64 -150 -114 l-32 -44 -3 81 -3 81 -109 0
-110 0 0 -430 0 -431 111 3 111 3 -2 217 c-1 267 5 294 75 365 58 57 98 73
188 73 l57 0 0 105 0 105 -47 0 c-27 -1 -65 -7 -86 -14z"/>
<path d="M7847 4710 c-100 -25 -195 -112 -222 -203 -8 -28 -15 -54 -15 -59 0
-4 47 -8 104 -8 l104 0 19 37 c26 52 63 75 126 81 100 8 152 -35 164 -137 l5
-48 -143 -6 c-166 -7 -253 -29 -320 -80 -64 -49 -84 -95 -84 -198 0 -78 3 -90
30 -135 46 -74 113 -107 229 -112 114 -6 184 10 241 54 25 19 47 34 50 34 3 0
5 -11 5 -24 0 -54 4 -56 122 -56 101 0 110 1 102 18 -4 9 -11 152 -14 317 -4
165 -12 314 -17 331 -28 83 -79 140 -158 175 -41 19 -71 23 -170 25 -66 2
-137 -1 -158 -6z m280 -535 c-15 -103 -76 -157 -186 -163 -61 -4 -70 -2 -99
23 -26 21 -32 34 -32 65 0 85 62 116 239 119 l84 1 -6 -45z"/>
</g>
</svg>
